<?xml version="1.0" encoding="utf-8"?>
<!-- Generator: Adobe Illustrator 23.0.2, SVG Export Plug-In . SVG Version: 6.00 Build 0)  -->
<svg version="1.1" id="Layer_1" xmlns="http://www.w3.org/2000/svg" xmlns:xlink="http://www.w3.org/1999/xlink" x="0px" y="0px"
	 viewBox="0 0 31.1 17.8" style="enable-background:new 0 0 31.1 17.8;" xml:space="preserve">
<g>
	<path style="fill:#ffffff;" d="M30.9,1.6C31,1.8,31.1,2,31.1,2.2S31,2.7,30.9,2.8L16.2,17.6c-0.2,0.1-0.4,0.2-0.6,0.2
		s-0.4-0.1-0.6-0.2L0.2,2.8C0.1,2.7,0,2.5,0,2.2s0.1-0.4,0.2-0.6l1.4-1.4C1.8,0.1,1.9,0,2.2,0s0.4,0.1,0.6,0.2l12.7,12.7L28.3,0.2
		C28.5,0.1,28.7,0,28.9,0s0.4,0.1,0.6,0.2L30.9,1.6z"/>
</g>
</svg>
